<svg width="125" height="45" viewBox="0 0 125 45" fill="none" xmlns="http://www.w3.org/2000/svg">
<path d="M9.7613 0.615234C4.64643 0.615234 0.5 4.76168 0.5 9.87657V35.4996C0.5 40.6145 4.64643 44.7609 9.7613 44.7609H31.5254C30.716 43.3203 29.1071 40.5419 28.1296 38.5867H9.7613C8.05635 38.5867 6.6742 37.2046 6.6742 35.4996V9.87657C6.6742 8.17161 8.05635 6.78946 9.7613 6.78946H31.5254C33.2303 6.78946 34.6125 8.17161 34.6125 9.87657V11.06H37.6996H40.7867V9.87657C40.7867 4.76168 36.6403 0.615234 31.5254 0.615234H9.7613Z" fill="#0D60C8"/>
<path d="M53.4957 15.9867L46.2208 15.047C45.9885 15.017 45.7532 15.0169 45.5209 15.0466L38.1631 15.9867L38.1653 44.6607L41.388 38.637V20.1106C41.388 19.8847 41.5718 19.7016 41.7985 19.7016L49.7511 19.7016C50.0522 19.7016 50.3251 19.525 50.4477 19.251L50.7 18.6864C50.8151 18.4291 50.992 18.2041 51.2153 18.0313L53.4957 15.9867Z" fill="#0D60C8"/>
<path d="M22.3168 15.9867L29.5917 15.047C29.824 15.017 30.0593 15.0169 30.2916 15.0466L37.6494 15.9867L37.6472 44.6607L34.4245 38.637V20.1106C34.4245 19.8847 34.2407 19.7016 34.014 19.7016L26.0614 19.7016C25.7603 19.7016 25.4874 19.525 25.3648 19.251L25.1125 18.6864C24.9974 18.4291 24.8205 18.2041 24.5972 18.0313L22.3168 15.9867Z" fill="#0D60C8"/>
<path d="M51.8078 35.2249L51.8078 35.2232L51.765 27.7515C51.7611 27.0694 51.2071 26.5186 50.525 26.5186L50.3128 26.5186C49.6264 26.5185 49.0706 27.0761 49.0728 27.7625L49.115 41.1896C49.1172 41.8729 49.6717 42.4258 50.355 42.4258H57.9978C58.6827 42.4258 59.2379 41.8706 59.2379 41.1857V41.1442C59.2379 40.4593 58.6827 39.9042 57.9978 39.9042H52.4549C52.0974 39.9042 51.8076 39.6143 51.8076 39.2568L51.8078 35.2249Z" fill="#0D60C8" stroke="#0D60C8" stroke-width="0.592714"/>
<path d="M51.7584 32.9001L51.7584 32.9015L51.7156 40.3732C51.7118 41.0281 51.1799 41.557 50.525 41.557L50.3128 41.557C49.6538 41.5571 49.1201 41.0217 49.1221 40.3626L49.1644 26.9355C49.1665 26.2794 49.6989 25.7486 50.355 25.7486H57.9978C58.6554 25.7486 59.1885 26.2817 59.1885 26.9393V26.9808C59.1885 27.6384 58.6554 28.1714 57.9978 28.1714H52.4549C52.0701 28.1714 51.7582 28.4834 51.7582 28.8682L51.7584 32.9001Z" fill="#0D60C8" stroke="#0D60C8" stroke-width="0.493928"/>
<path d="M67.0341 33.5555L68.513 29.6292L69.9919 33.5556C70.3812 34.589 69.6174 35.6929 68.513 35.6929C67.4086 35.6929 66.6448 34.589 67.0341 33.5555ZM62.5575 42.423H62.8448C63.3616 42.423 63.8243 42.1024 64.0058 41.6185L65.1419 38.5906C65.2367 38.338 65.4782 38.1707 65.748 38.1707H71.2975C71.5684 38.1707 71.8106 38.3394 71.9046 38.5935L73.0214 41.6131C73.2014 42.0998 73.6655 42.423 74.1844 42.423H74.4684C75.3421 42.423 75.9418 41.5436 75.6229 40.7302L70.209 26.9236C70.0228 26.4487 69.5647 26.1363 69.0546 26.1363H67.9714C67.4612 26.1363 67.0031 26.4487 66.8169 26.9236L61.4031 40.7302C61.0841 41.5436 61.6838 42.423 62.5575 42.423Z" fill="#0D60C8" stroke="#0D60C8" stroke-width="0.592714"/>
<path d="M88.6823 35.6167H88.6821L88.6824 35.6256L88.7461 37.7396L81.5745 26.7007C81.3458 26.3487 80.9544 26.1363 80.5346 26.1363H79.4378C78.753 26.1363 78.1978 26.6914 78.1978 27.3763V41.1829C78.1978 41.8678 78.753 42.423 79.4378 42.423H79.6473C80.3322 42.423 80.8874 41.8678 80.8874 41.1829V32.3507H80.8875L80.8873 32.3418L80.8236 30.2296L88.3598 41.8574C88.5884 42.2101 88.9801 42.423 89.4004 42.423H90.1318C90.8167 42.423 91.3719 41.8678 91.3719 41.1829V27.3763C91.3719 26.6914 90.8167 26.1363 90.1318 26.1363H89.9223C89.2375 26.1363 88.6823 26.6914 88.6823 27.3763V35.6167Z" fill="#0D60C8" stroke="#0D60C8" stroke-width="0.592714"/>
<path d="M103.318 41.3984L103.318 41.3985L103.322 41.3956C104.443 40.5048 105.007 39.315 105.007 37.8538C105.007 36.6472 104.627 35.6172 103.859 34.7837C103.109 33.9384 101.874 33.2533 100.199 32.7063C99.3915 32.4378 98.7309 32.1891 98.2148 31.9606C97.6987 31.7321 97.3433 31.5306 97.1303 31.3593C96.7496 31.0162 96.5734 30.6279 96.5734 30.1821C96.5734 29.6256 96.804 29.1788 97.2948 28.8217L97.2949 28.8218L97.3026 28.8158C97.8051 28.424 98.4296 28.2208 99.1945 28.2208C99.9171 28.2208 100.506 28.4038 100.978 28.7543L100.978 28.7544L100.986 28.7597C101.203 28.9109 101.386 29.0775 101.536 29.2587C101.925 29.7273 102.622 30.132 103.308 29.8559L103.494 29.781C104.082 29.5444 104.467 28.8367 104.088 28.2146C103.722 27.6157 103.207 27.1015 102.55 26.6694C101.583 26.0191 100.445 25.6992 99.1489 25.6992C97.6743 25.6992 96.4116 26.128 95.3797 26.9963L95.3797 26.9963L95.3779 26.9978C94.3616 27.8666 93.8382 28.9326 93.8382 30.1821C93.8382 31.0626 94.0702 31.8478 94.5406 32.5264C95.009 33.2021 95.7023 33.7557 96.6012 34.1957C96.9428 34.3675 97.7765 34.6809 99.0746 35.1309L99.0746 35.1309L99.0793 35.1325C100.365 35.5542 101.19 35.976 101.61 36.3796L101.61 36.3796L101.614 36.3828C102.058 36.797 102.271 37.2823 102.271 37.8538C102.271 38.5535 102.008 39.1025 101.474 39.5272C100.93 39.945 100.216 40.1658 99.3085 40.1658C98.9029 40.1658 98.5215 40.0989 98.1621 39.9666C97.7967 39.8175 97.4595 39.6217 97.1499 39.3789C96.8557 39.122 96.5946 38.8167 96.3672 38.4612C96.3063 38.3661 96.249 38.268 96.1951 38.1668C95.8825 37.5791 95.1685 37.1804 94.4779 37.452L94.2417 37.545C93.6524 37.7768 93.2932 38.4478 93.5723 39.0735C94.0106 40.0561 94.6568 40.8633 95.5089 41.49C96.5959 42.2894 97.851 42.6874 99.2629 42.6874C100.839 42.6874 102.196 42.2618 103.318 41.3984Z" fill="#0D60C8" stroke="#0D60C8" stroke-width="0.592714"/>
<path d="M56.7379 33.1494H51.9305C51.2826 33.1494 50.7574 33.6747 50.7574 34.3226C50.7574 34.9705 51.2826 35.4957 51.9305 35.4957H56.7379C57.3858 35.4957 57.911 34.9705 57.911 34.3226C57.911 33.6747 57.3858 33.1494 56.7379 33.1494Z" fill="#0D60C8" stroke="#0D60C8" stroke-width="0.592714"/>
<path d="M113.099 29.3163C112.877 29.7378 112.684 30.2104 112.526 30.7229C112.035 30.8881 111.582 31.0893 111.178 31.3211C110.753 31.5652 110.375 31.8481 110.063 32.1638C110.671 30.2736 112.103 28.7796 113.912 28.1465C113.607 28.4726 113.334 28.8695 113.099 29.3163ZM113.099 29.3163L113.151 29.3436L113.099 29.3163C113.099 29.3163 113.099 29.3163 113.099 29.3163ZM113.912 40.2403C112.103 39.6073 110.671 38.1132 110.063 36.2229C110.375 36.5387 110.753 36.8215 111.178 37.0657C111.582 37.2975 112.035 37.4987 112.526 37.6639C112.684 38.1764 112.877 38.649 113.099 39.0705C113.334 39.5173 113.607 39.9142 113.912 40.2403ZM118.082 38.7728L118.132 38.7991L118.082 38.7728C117.543 39.7959 116.86 40.406 116.154 40.5408V38.178C116.974 38.1569 117.758 38.0493 118.478 37.8695C118.36 38.1946 118.227 38.497 118.082 38.7728ZM120.238 31.8646L120.268 31.8126L120.238 31.8646C121.219 32.4275 121.805 33.1412 121.933 33.8826H119.674C119.654 33.0253 119.551 32.206 119.378 31.4534C119.687 31.5759 119.975 31.7137 120.238 31.8646ZM118.609 29.3163L118.556 29.3443L118.609 29.3163C118.374 28.8695 118.1 28.4726 117.795 28.1465C119.605 28.7796 121.037 30.2736 121.644 32.1638C121.333 31.8481 120.955 31.5652 120.53 31.3211C120.126 31.0893 119.673 30.8881 119.182 30.7229C119.024 30.2104 118.831 29.7378 118.609 29.3163ZM122.561 34.1934C122.561 30.3312 119.56 27.1958 115.854 27.1958C112.147 27.1958 109.147 30.3312 109.147 34.1934C109.147 38.0556 112.147 41.191 115.854 41.191C119.56 41.191 122.561 38.0556 122.561 34.1934ZM113.626 29.614C114.165 28.5909 114.847 27.9808 115.554 27.846V30.2087C114.734 30.2299 113.95 30.3375 113.23 30.5173C113.348 30.1922 113.48 29.8898 113.626 29.614ZM112.33 31.4534C112.157 32.206 112.054 33.0253 112.034 33.8826H109.774C109.903 33.1412 110.489 32.4275 111.469 31.8646C111.732 31.7137 112.02 31.5759 112.33 31.4534ZM112.634 33.8826C112.658 32.9223 112.791 32.0204 113.008 31.2202C113.773 30.9941 114.636 30.8555 115.554 30.8305V31.8413C115.202 32.7735 114.49 33.5157 113.599 33.8826H112.634ZM112.33 36.9334C112.02 36.8109 111.732 36.6731 111.469 36.5222C110.489 35.9592 109.903 35.2456 109.774 34.5042H112.034C112.054 35.3615 112.157 36.1808 112.33 36.9334ZM113.008 37.1666C112.791 36.3664 112.658 35.4645 112.634 34.5042H113.599C114.49 34.8711 115.202 35.6133 115.554 36.5455V37.5563C114.636 37.5313 113.773 37.3927 113.008 37.1666ZM115.554 38.178V40.5408C114.847 40.406 114.165 39.7959 113.626 38.7728C113.481 38.497 113.348 38.1946 113.23 37.8695C113.95 38.0493 114.734 38.1569 115.554 38.178ZM120.53 37.0657C120.955 36.8216 121.333 36.5387 121.644 36.223C121.037 38.1132 119.605 39.6073 117.795 40.2403C118.1 39.9142 118.374 39.5173 118.609 39.0705C118.831 38.649 119.024 38.1764 119.182 37.6639C119.673 37.4987 120.126 37.2975 120.53 37.0657ZM120.238 36.5222C119.975 36.6731 119.687 36.8109 119.378 36.9334C119.551 36.1808 119.654 35.3615 119.674 34.5042H121.933C121.805 35.2456 121.219 35.9592 120.238 36.5222ZM119.073 34.5042C119.05 35.4645 118.916 36.3664 118.699 37.1666C117.934 37.3927 117.072 37.5313 116.154 37.5563V36.5462C116.506 35.6138 117.218 34.8712 118.109 34.5042H119.073ZM116.154 30.8305C117.072 30.8555 117.934 30.9941 118.699 31.2202C118.916 32.0204 119.05 32.9223 119.073 33.8826H118.109C117.218 33.5156 116.506 32.773 116.154 31.8406V30.8305ZM116.154 27.846C116.86 27.9808 117.543 28.5909 118.082 29.614C118.227 29.8899 118.36 30.1922 118.478 30.5173C117.758 30.3375 116.974 30.2299 116.154 30.2087V27.846Z" fill="#0D60C8" stroke="#0D60C8" stroke-width="0.120075"/>
<path d="M115.923 42.3046C120.253 42.3046 123.735 38.8792 123.735 34.2706C123.735 29.7029 120.293 26.0666 115.923 26.0666C111.589 26.0666 107.953 29.6646 107.953 34.2706C107.953 38.9169 111.629 42.3046 115.923 42.3046Z" stroke="#0D60C8" stroke-width="2.4703"/>
</svg>
